<?xml version="1.0" encoding="utf-8"?>
<!-- Generator: Adobe Illustrator 26.0.2, SVG Export Plug-In . SVG Version: 6.00 Build 0)  -->
<svg version="1.1" id="_x3C_Layer_x3E_" xmlns="http://www.w3.org/2000/svg" xmlns:xlink="http://www.w3.org/1999/xlink" x="0px"
	 y="0px" viewBox="0 0 1120.35 1006.42" style="enable-background:new 0 0 1120.35 1006.42;" xml:space="preserve">
<style type="text/css">
	.st0{display:none;fill:#FFFFFF;}
	.st1{display:none;}
	.st2{display:inline;opacity:0.75;}
	.st3{fill:#FA6FF5;}
	.st4{display:inline;opacity:0.75;fill:url(#SVGID_1_);}
	.st5{display:inline;opacity:0.75;fill:url(#SVGID_00000093143169281830126360000011159292497937037699_);}
	.st6{display:inline;opacity:0.75;fill:url(#SVGID_00000021819372196632926900000015550223672851348157_);}
	.st7{display:inline;opacity:0.75;fill:url(#SVGID_00000164491586226161903540000016108551510014131597_);}
	.st8{display:inline;opacity:0.75;fill:url(#SVGID_00000034768440352568690370000015733653502913116601_);}
	.st9{display:inline;opacity:0.75;fill:url(#SVGID_00000016766556945876654040000009232859895121191064_);}
	.st10{display:inline;}
	.st11{fill:#FFFFFF;}
	.st12{display:inline;opacity:0.5;fill:url(#SVGID_00000168823259578331767020000010475566009779824805_);}
	.st13{display:inline;opacity:0.75;fill:url(#SVGID_00000155833949796604658130000008912438083561689483_);}
	.st14{display:inline;opacity:0.75;fill:url(#SVGID_00000133530447348566415230000010781772651955536011_);}
	.st15{display:inline;opacity:0.75;fill:url(#SVGID_00000071559862363890963570000013504817673193423241_);}
	.st16{display:inline;opacity:0.5;fill:url(#SVGID_00000149359823276954315190000017172522689387897731_);}
	.st17{display:inline;opacity:0.75;fill:url(#SVGID_00000070110565717907552710000007258947760598498468_);}
	.st18{display:inline;opacity:0.5;fill:url(#SVGID_00000169542471591914586000000008270035600930613928_);}
	.st19{display:inline;opacity:0.75;fill:url(#SVGID_00000016060485247004219300000006349108390246379704_);}
	.st20{opacity:0.75;}
	.st21{fill:#1F90FF;}
	.st22{opacity:0.75;fill:url(#SVGID_00000064336528701076281260000002562910416490622394_);}
	.st23{opacity:0.75;fill:url(#SVGID_00000147902693744102904110000014513396684492465796_);}
	.st24{opacity:0.75;fill:url(#SVGID_00000067208814432354059450000008111542889849329811_);}
	.st25{opacity:0.75;fill:url(#SVGID_00000008846704066324254120000011785206190414568891_);}
	.st26{opacity:0.75;fill:url(#SVGID_00000096749597292495339370000010615853566054057406_);}
	.st27{opacity:0.5;fill:url(#SVGID_00000044165114358053863200000010088874232498524068_);}
	.st28{opacity:0.5;fill:url(#SVGID_00000039842101496413598530000010972447641771457680_);}
</style>
<rect x="-144.97" y="-229.03" class="st0" width="3599" height="1403"/>
<g class="st1">
	<g class="st2">
		<path class="st3" d="M2829.54,122.74c42.24,0,86.11,5.07,130.41,15.06c77.88,17.57,139.72,58.39,178.85,118.03
			c34.51,52.6,49.54,117.16,42.35,181.78c-6.3,56.54-29.42,108.17-65.1,145.38c-39.2,40.88-91.26,62.49-150.56,62.49
			c-5.55,0-11.24-0.19-16.91-0.57c-16.7-1.11-32.92-1.68-48.21-1.68c-155.32,0-221.92,56.46-306.23,127.94l-6.59,5.59
			c-33.83,28.65-75.94,44.42-118.56,44.42c-28.48,0-56.28-7.11-80.39-20.55c-25.25-14.09-46.4-35.2-61.14-61.07
			c-22.56-39.58-30.65-90.76-23.4-148c8.42-66.46,36.75-140.79,84.22-220.96c0.36-0.62,36.67-62.64,108.94-123.91
			c42.44-35.99,88.79-64.66,137.74-85.22C2696.14,135.77,2761.61,122.74,2829.54,122.74L2829.54,122.74z M2829.54,121.22
			c-298.71,0-442.58,248.63-442.58,248.63c-175.65,296.62-52.87,452.87,82.02,452.87c41.48,0,84.1-14.78,119.54-44.79
			c86.74-73.44,153.03-133.17,311.84-133.17c15.15,0,31.17,0.54,48.1,1.67c5.77,0.38,11.43,0.57,17.01,0.57
			c268.86,0,315.94-438.22-5.19-510.69C2913.8,125.83,2870.25,121.22,2829.54,121.22L2829.54,121.22z"/>
	</g>
	<linearGradient id="SVGID_1_" gradientUnits="userSpaceOnUse" x1="2326.6006" y1="460.5294" x2="3119.5996" y2="460.5294">
		<stop  offset="0" style="stop-color:#FA6FF5"/>
		<stop  offset="1" style="stop-color:#940E8C"/>
	</linearGradient>
	<path class="st4" d="M2404.64,367.29c0,0,166.51-293.08,514.02-213.22c293.88,67.53,243.82,483.02-10.59,465.76
		c-174.31-11.83-237.53,46.61-322.71,120.06C2450.24,856.4,2198.74,721.4,2404.64,367.29z"/>
	
		<linearGradient id="SVGID_00000114054276822591197840000010805145192828637827_" gradientUnits="userSpaceOnUse" x1="2699.9546" y1="807.7377" x2="2753.8711" y2="753.8214">
		<stop  offset="0" style="stop-color:#260B62"/>
		<stop  offset="1" style="stop-color:#531499"/>
	</linearGradient>
	
		<circle style="display:inline;opacity:0.75;fill:url(#SVGID_00000114054276822591197840000010805145192828637827_);" cx="2726.91" cy="780.78" r="38.12"/>
	
		<linearGradient id="SVGID_00000031166885761404231220000016284230663441486504_" gradientUnits="userSpaceOnUse" x1="3132.5376" y1="706.8423" x2="3213.4131" y2="625.9668">
		<stop  offset="0" style="stop-color:#FA6FF5"/>
		<stop  offset="1" style="stop-color:#940E8C"/>
	</linearGradient>
	
		<circle style="display:inline;opacity:0.75;fill:url(#SVGID_00000031166885761404231220000016284230663441486504_);" cx="3172.98" cy="666.4" r="57.19"/>
	
		<linearGradient id="SVGID_00000170997639055793661330000003393604999262810763_" gradientUnits="userSpaceOnUse" x1="2503.7461" y1="172.8215" x2="2530.7046" y2="145.8629">
		<stop  offset="0" style="stop-color:#531499"/>
		<stop  offset="1" style="stop-color:#260B62"/>
	</linearGradient>
	
		<circle style="display:inline;opacity:0.75;fill:url(#SVGID_00000170997639055793661330000003393604999262810763_);" cx="2517.23" cy="159.34" r="19.06"/>
	
		<linearGradient id="SVGID_00000139975298936679445660000003874274437646366853_" gradientUnits="userSpaceOnUse" x1="-1893.7224" y1="500.5294" x2="-1100.7223" y2="500.5294" gradientTransform="matrix(-1 0 0 -1 1283.0659 983.9341)">
		<stop  offset="0" style="stop-color:#260B62"/>
		<stop  offset="1" style="stop-color:#531499"/>
	</linearGradient>
	<path style="display:inline;opacity:0.75;fill:url(#SVGID_00000139975298936679445660000003874274437646366853_);" d="
		M2463.72,333.52c-66.09,81.6-93.19,201.24-73.8,305.44c23.13,124.34,173.88,165.33,281.65,70.96
		c107.78-94.37,162.31-87.72,280.48-78.42c106.19,8.36,184.39-26.58,214.25-89.05c29.87-62.47-4.25-145.77-99.98-137.34
		c-80.51,7.09-148.03-34.11-175.3-113.86c-25.9-75.74-118.03-92.31-186.85-84.34C2635.35,214.88,2535.45,244.95,2463.72,333.52z"/>
	
		<linearGradient id="SVGID_00000177449420978347685390000004915795273815167915_" gradientUnits="userSpaceOnUse" x1="2421.9131" y1="532.9664" x2="3108.1621" y2="532.9664">
		<stop  offset="0" style="stop-color:#531499"/>
		<stop  offset="1" style="stop-color:#260B62"/>
	</linearGradient>
	<path style="display:inline;opacity:0.75;fill:url(#SVGID_00000177449420978347685390000004915795273815167915_);" d="
		M2645.34,327.22c-227.29,78.98-326.51,324.74-77.91,345.23c216.57,17.84,272.45,122.13,388.39,106.8
		c154.01-20.36,152.06-236.22,152.28-236.26C3112.38,272.6,2889.83,242.26,2645.34,327.22z"/>
	<g class="st10">
		<path class="st11" d="M2683.56,435.95c7.59,0,15.28,1.83,20.77,4.94v12.81c-5.4-3.84-12.63-5.76-19.76-5.67
			c-6.95,0.09-10.43,2.01-10.43,5.95c0,11.07,35.04,6.95,35.04,29.74c0,14.37-11.53,18.85-24.98,18.85c-8.87,0-17.11-2.1-23.7-5.76
			v-13.08c7.32,4.85,15.37,6.77,22.69,6.77c7.41,0,11.99-1.56,11.99-6.13c0-11.99-35.04-7.5-35.04-30.19
			C2660.13,441.8,2670.93,435.95,2683.56,435.95z"/>
		<path class="st11" d="M2731.59,441.53v15.83h13.91v10.71h-13.91v17.2c0,4.58,2.29,6.59,7.05,6.59c2.93,0,5.4-0.46,7.96-1.46v10.25
			c-3.39,1.19-7.41,1.92-11.8,1.92c-8.51,0-15.83-3.93-15.83-14.82v-19.67h-7.41v-10.71h7.41v-12.81L2731.59,441.53z"/>
		<path class="st11" d="M2785.94,457.36h13.17l-19.49,49.23c-4.94,12.26-11.8,16.01-18.94,16.01c-2.29,0-4.58-0.46-6.86-1.01v-10.52
			c1.74,0.37,3.48,0.64,5.21,0.64c4.58,0,8.05-3.11,10.43-9.61l0.09-0.18l-20.77-44.56h13.45l12.81,29.64L2785.94,457.36z"/>
		<path class="st11" d="M2818.33,434.48v66.79h-12.72v-66.79H2818.33z"/>
		<path class="st11" d="M2849.44,456.07c18.21,0,24.06,14.37,21.14,27.36h-30.93c1.46,6.41,8.24,9.06,15.46,9.06
			c5.03,0,9.52-1.01,13.27-2.65v9.97c-4.12,1.74-9.52,2.74-16.1,2.74c-13.91,0-25.44-7.96-25.44-23.24
			C2826.84,462.75,2839.56,456.07,2849.44,456.07z M2849.9,465.77c-5.4,0-10.16,3.38-10.34,9.42h19.58
			C2859.6,472.18,2857.86,465.77,2849.9,465.77z"/>
	</g>
	<g class="st10">
		<path class="st11" d="M2656.36,557.36l11.16-25.62h3.4l11.13,25.62h-3.29l-2.64-6.19h-13.8l-2.63,6.19H2656.36z M2663.54,548.32
			h11.38l-5.31-12.44c-0.14-0.33-0.26-0.62-0.4-0.99c-0.15,0.37-0.26,0.66-0.4,0.99L2663.54,548.32z"/>
		<path class="st11" d="M2687.99,531.74v10.69c1.28-1.5,3.44-3.08,6.81-3.08c5.01,0,8.78,3.96,8.78,9.22c0,5.27-3.77,9.22-8.78,9.22
			c-3.37,0-5.53-1.57-7.1-3.37v2.93h-2.63v-25.62H2687.99z M2694.46,542.06c-3.15,0-5.49,2.05-6.48,4.32v4.39
			c0.99,2.27,3.33,4.32,6.48,4.32c3.4,0,6.19-2.49,6.19-6.52C2700.65,544.55,2697.87,542.06,2694.46,542.06z"/>
		<path class="st11" d="M2713.46,539.35c2.34,0,4.58,0.62,6.22,1.5v2.78c-1.46-0.95-3.92-1.65-6.04-1.65c-1.9,0-3.92,0.62-3.92,2.34
			c0,3.81,11.16,2.2,11.16,8.53c0,3.66-3.44,4.94-7.25,4.94c-2.49,0-5.16-0.66-6.81-1.72v-2.86c1.79,1.21,4.47,1.87,6.66,1.87
			c2.49,0,4.46-0.4,4.46-2.16c0-3.7-11.2-2.23-11.2-8.53C2706.76,540.78,2710.17,539.35,2713.46,539.35z"/>
		<path class="st11" d="M2728.9,533.61v6.19h7.03v2.71h-7.03v9.08c0,2.67,1.21,3.48,3.77,3.48c1.39,0,2.71-0.33,3.88-0.81v2.71
			c-1.32,0.48-3.04,0.81-4.72,0.81c-3.4,0-5.82-1.83-5.82-5.67v-9.59h-3.29v-2.71h3.29v-5.45L2728.9,533.61z"/>
		<path class="st11" d="M2750.06,539.43v2.93c-3.44-0.4-6.22,1.24-7.28,4.06v10.95h-2.93v-17.57h2.63v3.11
			C2743.87,540.6,2746.99,539.17,2750.06,539.43z"/>
		<path class="st11" d="M2768.65,555.06c0.44,0,0.91-0.11,1.35-0.26v2.38c-0.7,0.26-1.46,0.4-2.2,0.4c-1.43,0-2.71-0.58-3.22-2.12
			c-1.76,1.46-3.99,2.34-6.84,2.34c-3.11,0-6.19-1.65-6.19-5.34c0-4.54,4.17-5.93,7.94-5.93c1.54,0,3.4,0.22,4.87,0.55v-0.62
			c0-2.63-1.79-4.39-5.01-4.39c-2.71,0-4.87,0.66-6.41,1.32v-2.85c1.39-0.48,3.81-1.17,6.7-1.17c4.69,0,7.65,2.56,7.65,7.47v6.88
			C2767.3,554.76,2767.88,555.06,2768.65,555.06z M2758.37,555.28c2.23,0,4.47-0.91,6-2.56v-3.22c-1.25-0.26-3.04-0.51-4.47-0.51
			c-2.56,0-5.34,0.77-5.34,3.33C2754.56,554.36,2756.43,555.28,2758.37,555.28z"/>
		<path class="st11" d="M2781.24,539.35c1.98,0,3.92,0.44,5.42,1.43v2.85c-1.32-1.03-3.19-1.57-5.05-1.57
			c-3.41,0-6.96,1.9-6.96,6.51c0,4.5,3.44,6.52,6.88,6.52c1.9,0,3.84-0.55,5.3-1.43v2.93c-1.65,0.8-3.51,1.21-5.71,1.21
			c-4.61,0-9.41-2.89-9.41-9.15C2771.73,542.25,2776.67,539.35,2781.24,539.35z"/>
		<path class="st11" d="M2795.04,533.61v6.19h7.03v2.71h-7.03v9.08c0,2.67,1.21,3.48,3.77,3.48c1.39,0,2.71-0.33,3.88-0.81v2.71
			c-1.32,0.48-3.04,0.81-4.72,0.81c-3.41,0-5.82-1.83-5.82-5.67v-9.59h-3.29v-2.71h3.29v-5.45L2795.04,533.61z"/>
	</g>
	
		<linearGradient id="SVGID_00000106835157709133348020000016200983226261487007_" gradientUnits="userSpaceOnUse" x1="2482.3711" y1="686.009" x2="2590.2046" y2="578.1754">
		<stop  offset="0" style="stop-color:#940E8C"/>
		<stop  offset="1" style="stop-color:#FA6FF5"/>
	</linearGradient>
	
		<circle style="display:inline;opacity:0.5;fill:url(#SVGID_00000106835157709133348020000016200983226261487007_);" cx="2536.29" cy="632.09" r="76.25"/>
</g>
<g class="st1">
	<g class="st2">
		<path class="st3" d="M1376.83,201.89c48.16,0,102.08,19.52,164.82,59.66c46.79,29.93,83.51,48.49,121.96,48.49
			c27.53,0,55.26-9.96,84.77-30.46c5.71-3.96,11.47-8.14,17.56-12.57c18.94-13.75,40.41-29.34,64.89-41.16
			c28.01-13.53,55.78-20.11,84.88-20.11c19.06,0,39.09,2.9,59.54,8.6c49.47,13.81,86.41,43.61,106.83,86.18
			c16.38,34.15,21.46,75.22,13.96,112.69c-14.52,72.46-45.17,131.01-99.37,189.83c-69.16,75.05-162.11,124.73-261.73,139.88
			c-21.47,3.26-44.15,4.92-67.41,4.92c-49.82,0-102.83-7.69-153.29-22.22c-51.37-14.8-100.35-36.81-141.65-63.64
			c-26.9-17.48-65.7-48.03-97.78-94.35c-32.81-47.38-51.74-101.13-56.25-159.73c-3.62-47.02,8.58-94.56,34.36-133.85
			c24.24-36.94,57.69-62.09,91.79-69C1355.03,202.95,1365.83,201.89,1376.83,201.89L1376.83,201.89z M1376.83,200.37
			c-11.12,0-21.92,1.05-32.43,3.18c-69.76,14.13-135.15,103.46-127.37,204.46c10.03,130.25,89.12,212.63,154.72,255.25
			c85.25,55.38,194.98,86.11,295.77,86.11c23.16,0,45.83-1.62,67.64-4.94c93.58-14.23,188.68-60.1,262.62-140.35
			c58.92-63.94,86.37-123.87,99.74-190.57c13.37-66.7-10.28-169.48-121.87-200.64c-21.69-6.05-41.59-8.66-59.95-8.66
			c-76.12,0-125.92,44.75-168.21,74.11c-30.51,21.19-57.54,30.19-83.9,30.19c-38.78,0-76.15-19.46-121.13-48.25
			C1480.88,220.86,1425.83,200.37,1376.83,200.37L1376.83,200.37z"/>
	</g>
	
		<linearGradient id="SVGID_00000057110444692534481160000012095473852119227273_" gradientUnits="userSpaceOnUse" x1="1233.8533" y1="-1112.7833" x2="2072.6028" y2="-1112.7833" gradientTransform="matrix(-1 0 0 -1 3308.0659 -656.0659)">
		<stop  offset="0" style="stop-color:#FA6FF5"/>
		<stop  offset="1" style="stop-color:#940E8C"/>
	</linearGradient>
	<path style="display:inline;opacity:0.75;fill:url(#SVGID_00000057110444692534481160000012095473852119227273_);" d="
		M1254.96,575.33c53.86,119.17,155.03,170.11,230.16,188.18c120.05,28.87,261.46,10.23,363.1-45.67
		c81.47-44.81,153.5-119.91,194.25-220.23c32.46-79.94,37.27-145.54,26.77-212.78c-10.51-67.24-67.52-156-181.14-147.83
		c-113.62,8.17-152.15,86.29-188.09,138.2c-51.63,74.57-109.08,71.97-195.36,51.86c-86.28-20.11-153.71-16.74-202.17,13.15
		C1242.94,376.93,1213.19,482.93,1254.96,575.33z"/>
	
		<linearGradient id="SVGID_00000110464078525083881610000001641691748016226199_" gradientUnits="userSpaceOnUse" x1="1306.2903" y1="-1189.0331" x2="2099.2905" y2="-1189.0331" gradientTransform="matrix(-1 0 0 -1 3308.0659 -656.0659)">
		<stop  offset="0" style="stop-color:#260B62"/>
		<stop  offset="1" style="stop-color:#531499"/>
	</linearGradient>
	<path style="display:inline;opacity:0.75;fill:url(#SVGID_00000110464078525083881610000001641691748016226199_);" d="
		M1335.63,559.24c101.42-15.53,173.96,3.63,214.24,70.72c45.08,75.07,61.16,139.68,148.32,168.64
		c109.47,36.36,247.06-41.08,290.09-196.12c21.25-76.54,25.96-188.11-51.25-276.8c-56.7-65.13-161.94-83.77-244.34-49.32
		c-60.74,25.4-138.25,51.68-216.99,9.97c-78.74-41.71-172.22-40.84-234.29,31.75C1172.73,398.41,1216.34,577.52,1335.63,559.24z"/>
	
		<linearGradient id="SVGID_00000070108742165970337010000012013122918537235627_" gradientUnits="userSpaceOnUse" x1="1252.9155" y1="-1101.3457" x2="1984.9155" y2="-1101.3457" gradientTransform="matrix(-1 0 0 -1 3308.0659 -656.0659)">
		<stop  offset="0" style="stop-color:#531499"/>
		<stop  offset="1" style="stop-color:#260B62"/>
	</linearGradient>
	<path style="display:inline;opacity:0.75;fill:url(#SVGID_00000070108742165970337010000012013122918537235627_);" d="
		M1347.41,568.47c58.53,104.93,159.32,142.77,228.26,157.78c85.46,18.61,214.23,8.85,298.29-40.81
		c73.21-43.25,134.17-114.23,163.17-209.42c23.11-75.85,22.23-136.35,7.28-197.13c-14.94-60.79-73.91-137.59-176.58-121.07
		c-102.67,16.52-131.44,91.18-159.96,141.62c-40.97,72.45-85.07,87.23-165.14,75.66c-80.07-11.57-139.36-9.32-181.23,21.66
		C1328.26,421.33,1302.02,487.1,1347.41,568.47z"/>
	
		<linearGradient id="SVGID_00000052795574403355982540000007312009478621941177_" gradientUnits="userSpaceOnUse" x1="1359.1239" y1="-940.6788" x2="1466.9576" y2="-1048.5125" gradientTransform="matrix(-1 0 0 -1 3308.0659 -656.0659)">
		<stop  offset="0" style="stop-color:#940E8C"/>
		<stop  offset="1" style="stop-color:#FA6FF5"/>
	</linearGradient>
	
		<circle style="display:inline;opacity:0.5;fill:url(#SVGID_00000052795574403355982540000007312009478621941177_);" cx="1895.03" cy="338.53" r="76.25"/>
	
		<linearGradient id="SVGID_00000034794741993637637880000015561173800753908406_" gradientUnits="userSpaceOnUse" x1="1593.5669" y1="227.3269" x2="1647.4838" y2="173.41">
		<stop  offset="0" style="stop-color:#260B62"/>
		<stop  offset="1" style="stop-color:#531499"/>
	</linearGradient>
	
		<circle style="display:inline;opacity:0.75;fill:url(#SVGID_00000034794741993637637880000015561173800753908406_);" cx="1620.53" cy="200.37" r="38.12"/>
	
		<linearGradient id="SVGID_00000137819982568764027230000011490187343620006531_" gradientUnits="userSpaceOnUse" x1="1773.0251" y1="693.092" x2="1887.4001" y2="693.092">
		<stop  offset="0" style="stop-color:#FA6FF5"/>
		<stop  offset="1" style="stop-color:#940E8C"/>
	</linearGradient>
	
		<circle style="display:inline;opacity:0.5;fill:url(#SVGID_00000137819982568764027230000011490187343620006531_);" cx="1830.21" cy="693.09" r="57.19"/>
	
		<linearGradient id="SVGID_00000044870976998757801060000012286408182537279913_" gradientUnits="userSpaceOnUse" x1="1279.1709" y1="733.2593" x2="1306.1298" y2="706.3005">
		<stop  offset="0" style="stop-color:#531499"/>
		<stop  offset="1" style="stop-color:#260B62"/>
	</linearGradient>
	
		<circle style="display:inline;opacity:0.75;fill:url(#SVGID_00000044870976998757801060000012286408182537279913_);" cx="1292.65" cy="719.78" r="19.06"/>
	<g class="st10">
		<path class="st11" d="M1573.36,413.07c7.6,0,15.28,1.83,20.77,4.94v12.81c-5.4-3.84-12.63-5.76-19.76-5.67
			c-6.95,0.09-10.43,2.01-10.43,5.95c0,11.07,35.04,6.95,35.04,29.74c0,14.36-11.53,18.85-24.98,18.85c-8.87,0-17.11-2.1-23.7-5.76
			v-13.08c7.32,4.85,15.37,6.77,22.69,6.77c7.41,0,11.99-1.56,11.99-6.13c0-11.99-35.04-7.5-35.04-30.2
			C1549.93,418.93,1560.73,413.07,1573.36,413.07z"/>
		<path class="st11" d="M1621.39,418.65v15.83h13.91v10.71h-13.91v17.2c0,4.58,2.29,6.59,7.04,6.59c2.93,0,5.4-0.46,7.96-1.46v10.25
			c-3.39,1.19-7.41,1.92-11.8,1.92c-8.51,0-15.83-3.93-15.83-14.82v-19.67h-7.41v-10.71h7.41v-12.81L1621.39,418.65z"/>
		<path class="st11" d="M1675.74,434.48h13.18l-19.49,49.23c-4.94,12.26-11.8,16.01-18.94,16.01c-2.29,0-4.57-0.46-6.86-1.01v-10.52
			c1.74,0.37,3.48,0.64,5.21,0.64c4.58,0,8.05-3.11,10.43-9.61l0.09-0.18l-20.77-44.56h13.45l12.81,29.64L1675.74,434.48z"/>
		<path class="st11" d="M1708.13,411.61v66.79h-12.72v-66.79H1708.13z"/>
		<path class="st11" d="M1739.24,433.2c18.21,0,24.06,14.36,21.14,27.36h-30.93c1.46,6.41,8.24,9.06,15.46,9.06
			c5.03,0,9.52-1.01,13.27-2.65v9.97c-4.12,1.74-9.52,2.74-16.1,2.74c-13.91,0-25.44-7.96-25.44-23.24
			C1716.64,439.88,1729.36,433.2,1739.24,433.2z M1739.7,442.9c-5.4,0-10.16,3.38-10.34,9.42h19.58
			C1749.4,449.3,1747.66,442.9,1739.7,442.9z"/>
	</g>
	<g class="st10">
		<path class="st11" d="M1546.16,534.49l11.16-25.62h3.4l11.13,25.62h-3.29l-2.63-6.19h-13.8l-2.63,6.19H1546.16z M1553.34,525.45
			h11.38l-5.31-12.44c-0.15-0.33-0.26-0.62-0.4-0.99c-0.15,0.37-0.26,0.66-0.4,0.99L1553.34,525.45z"/>
		<path class="st11" d="M1577.79,508.87v10.69c1.28-1.5,3.44-3.08,6.81-3.08c5.01,0,8.78,3.95,8.78,9.22s-3.77,9.22-8.78,9.22
			c-3.37,0-5.53-1.57-7.1-3.37v2.93h-2.63v-25.62H1577.79z M1584.27,519.19c-3.15,0-5.49,2.05-6.48,4.32v4.39
			c0.99,2.27,3.33,4.32,6.48,4.32c3.4,0,6.19-2.49,6.19-6.52C1590.45,521.68,1587.67,519.19,1584.27,519.19z"/>
		<path class="st11" d="M1603.26,516.48c2.34,0,4.58,0.62,6.22,1.5v2.78c-1.46-0.95-3.92-1.65-6.04-1.65c-1.9,0-3.92,0.62-3.92,2.34
			c0,3.81,11.17,2.2,11.17,8.53c0,3.66-3.44,4.94-7.25,4.94c-2.49,0-5.16-0.66-6.81-1.72v-2.86c1.79,1.21,4.46,1.87,6.66,1.87
			c2.49,0,4.46-0.4,4.46-2.16c0-3.7-11.2-2.23-11.2-8.53C1596.56,517.91,1599.97,516.48,1603.26,516.48z"/>
		<path class="st11" d="M1618.7,510.73v6.19h7.03v2.71h-7.03v9.08c0,2.67,1.21,3.48,3.77,3.48c1.39,0,2.71-0.33,3.88-0.81v2.71
			c-1.32,0.47-3.04,0.8-4.72,0.8c-3.4,0-5.82-1.83-5.82-5.67v-9.59h-3.29v-2.71h3.29v-5.45L1618.7,510.73z"/>
		<path class="st11" d="M1639.86,516.55v2.93c-3.44-0.4-6.22,1.24-7.28,4.06v10.95h-2.93v-17.57h2.63v3.11
			C1633.67,517.72,1636.78,516.3,1639.86,516.55z"/>
		<path class="st11" d="M1658.45,532.18c0.44,0,0.91-0.11,1.35-0.26v2.38c-0.7,0.26-1.46,0.4-2.2,0.4c-1.43,0-2.71-0.58-3.22-2.12
			c-1.76,1.46-3.99,2.34-6.85,2.34c-3.11,0-6.18-1.65-6.18-5.34c0-4.54,4.17-5.93,7.94-5.93c1.54,0,3.4,0.22,4.87,0.55v-0.62
			c0-2.63-1.79-4.39-5.01-4.39c-2.71,0-4.87,0.66-6.4,1.32v-2.85c1.39-0.48,3.81-1.17,6.7-1.17c4.69,0,7.65,2.56,7.65,7.47v6.88
			C1657.1,531.89,1657.68,532.18,1658.45,532.18z M1648.17,532.4c2.23,0,4.47-0.91,6-2.56v-3.22c-1.25-0.26-3.04-0.51-4.47-0.51
			c-2.56,0-5.34,0.77-5.34,3.33C1644.36,531.49,1646.23,532.4,1648.17,532.4z"/>
		<path class="st11" d="M1671.04,516.48c1.98,0,3.92,0.44,5.42,1.43v2.85c-1.32-1.03-3.19-1.57-5.05-1.57
			c-3.41,0-6.96,1.9-6.96,6.52c0,4.5,3.44,6.52,6.88,6.52c1.9,0,3.84-0.55,5.31-1.43v2.93c-1.65,0.8-3.51,1.21-5.71,1.21
			c-4.61,0-9.4-2.89-9.4-9.15C1661.53,519.37,1666.47,516.48,1671.04,516.48z"/>
		<path class="st11" d="M1684.84,510.73v6.19h7.03v2.71h-7.03v9.08c0,2.67,1.21,3.48,3.77,3.48c1.39,0,2.71-0.33,3.88-0.81v2.71
			c-1.32,0.47-3.04,0.8-4.72,0.8c-3.41,0-5.82-1.83-5.82-5.67v-9.59h-3.29v-2.71h3.29v-5.45L1684.84,510.73z"/>
	</g>
</g>
<g>
	<g class="st20">
		<path class="st21" d="M763.46,183.74c22.12,0,43.36,2.88,64.92,8.81c43.88,12.06,79.23,35.45,105.06,69.54
			c20.92,27.6,35.75,62.32,44.08,103.2c13.48,66.11,5.95,129.41,3.32,147.24c-0.06,0.38-0.11,0.73-0.12,1.05l-0.02,0
			c-14.18,94.71-49.13,166.34-103.88,212.92c-50.08,42.6-116.46,64.2-197.3,64.2c-101.51,0-224.75-34.59-356.42-100.04
			c-81.28-40.4-151.17-98.63-196.79-163.94c-21.48-30.75-36.7-61.63-45.25-91.8c-8.61-30.39-10-58.48-4.12-83.51
			c15.53-66.13,79.87-102.55,181.18-102.55c10.32,0,21.16,0.38,32.21,1.13c21.98,1.49,43.81,2.25,64.88,2.25
			c117.23,0,197.72-22.44,268.72-42.24C674.46,195.9,718.09,183.74,763.46,183.74L763.46,183.74z M763.46,182.22
			c-108,0-205.75,68.48-408.23,68.48c-20.49,0-42.02-0.7-64.78-2.24c-11.23-0.76-22.01-1.13-32.31-1.13
			c-296.69,0-211.83,307.44,64.3,444.7c125.49,62.38,250.13,100.2,357.09,100.2c154.99,0,272.89-79.37,302.68-278.42
			c-0.28-0.1,47.05-267.64-153.42-322.72C806.06,184.83,784.55,182.22,763.46,182.22L763.46,182.22z"/>
	</g>
	
		<linearGradient id="SVGID_00000013876315829190007360000002206255041399384998_" gradientUnits="userSpaceOnUse" x1="590.3879" y1="868.467" x2="590.3879" y2="75.4671">
		<stop  offset="0" style="stop-color:#0090FF"/>
		<stop  offset="1" style="stop-color:#417AFF"/>
	</linearGradient>
	<path style="opacity:0.75;fill:url(#SVGID_00000013876315829190007360000002206255041399384998_);" d="M981.27,327.81
		C911.94,226,790.48,209.69,716.9,220.27c-73.58,10.58-155.19,5.74-218.13-76.58c-62.94-82.32-176.45-90.05-238.69-23.76
		c-67.32,71.69-158.94,245.91-36.72,448.49c77.87,129.08,196.83,213.75,300.05,257.76c103.21,44.01,189.38,60.3,240.78,16.39
		c51.41-43.91,21.49-94.03,10.97-116.54c-10.52-22.51-26.68-88.91,91.46-112.68C1007.32,585.04,1058.82,441.68,981.27,327.81z"/>
	
		<linearGradient id="SVGID_00000163068622030450443210000000714917071551453110_" gradientUnits="userSpaceOnUse" x1="387.35" y1="777.1013" x2="387.35" y2="258.6016" gradientTransform="matrix(1 0 0 1 241.1631 -61.1334)">
		<stop  offset="0" style="stop-color:#208EFF"/>
		<stop  offset="1" style="stop-color:#2161FF"/>
	</linearGradient>
	<path style="opacity:0.75;fill:url(#SVGID_00000163068622030450443210000000714917071551453110_);" d="M841.61,294.17
		c-94.11-69.33-205.1-95.16-292.81-96.6c-87.71-1.44-154.98,11.91-179.49,58.05c-24.51,46.13,11.8,73.15,25.99,86.13
		c14.19,12.98,45.26,55.56-33.54,106.69c-93.84,60.89-89.45,177.85,0,236.45c79.97,52.39,172.85,28.84,223.16,0
		c50.31-28.84,110.93-49.02,180.59-8.65c69.66,40.37,154.27,13.01,180.12-52.2C973.58,553.52,989.31,402.99,841.61,294.17z"/>
	
		<linearGradient id="SVGID_00000114054810094033765940000013130448958252196014_" gradientUnits="userSpaceOnUse" x1="639.6802" y1="819.1758" x2="693.5964" y2="765.2595">
		<stop  offset="0" style="stop-color:#007CFF"/>
		<stop  offset="1" style="stop-color:#63CEFF"/>
	</linearGradient>
	
		<circle style="opacity:0.75;fill:url(#SVGID_00000114054810094033765940000013130448958252196014_);" cx="666.64" cy="792.22" r="38.12"/>
	
		<linearGradient id="SVGID_00000114050398538698760330000016130290768040271233_" gradientUnits="userSpaceOnUse" x1="672.2217" y1="172.8215" x2="699.1799" y2="145.8633">
		<stop  offset="0" style="stop-color:#1F90FF"/>
		<stop  offset="1" style="stop-color:#6B54FF"/>
	</linearGradient>
	
		<circle style="opacity:0.75;fill:url(#SVGID_00000114050398538698760330000016130290768040271233_);" cx="685.7" cy="159.34" r="19.06"/>
	
		<linearGradient id="SVGID_00000037673542737767332460000003749506293128245387_" gradientUnits="userSpaceOnUse" x1="506.5128" y1="712.1544" x2="506.5128" y2="254.655">
		<stop  offset="0" style="stop-color:#1F90FF"/>
		<stop  offset="1" style="stop-color:#4D09C3"/>
	</linearGradient>
	<path style="opacity:0.75;fill:url(#SVGID_00000037673542737767332460000003749506293128245387_);" d="M721.08,261.3
		c-108.15-31.1-176.87,57.87-385.81,43.03C95.43,287.31,153.43,530.49,358.2,637.01c220.25,114.57,436.75,118.65,472.84-133.66
		C830.83,503.27,864.76,302.62,721.08,261.3z"/>
	
		<linearGradient id="SVGID_00000121986618881876324340000000522732916495534741_" gradientUnits="userSpaceOnUse" x1="2465.5107" y1="-1074.1162" x2="2573.3445" y2="-1181.9501" gradientTransform="matrix(-1 0 0 -1 3308.0659 -656.0659)">
		<stop  offset="0" style="stop-color:#00BFFF"/>
		<stop  offset="1" style="stop-color:#2E68FF"/>
	</linearGradient>
	
		<circle style="opacity:0.5;fill:url(#SVGID_00000121986618881876324340000000522732916495534741_);" cx="788.64" cy="471.97" r="76.25"/>
	
		<linearGradient id="SVGID_00000023972556161439242820000010209899130632347295_" gradientUnits="userSpaceOnUse" x1="205.326" y1="315.6545" x2="319.701" y2="315.6545">
		<stop  offset="0" style="stop-color:#2689FF"/>
		<stop  offset="1" style="stop-color:#7E86FF"/>
	</linearGradient>
	
		<circle style="opacity:0.5;fill:url(#SVGID_00000023972556161439242820000010209899130632347295_);" cx="262.51" cy="315.65" r="57.19"/>
</g>
</svg>
