<?xml version="1.0" standalone="no"?>
<svg viewBox="0 0 200 200" xmlns="http://www.w3.org/2000/svg">
  <path fill="#1F90FF" d="M35.5,-52.4C49.7,-46.1,67.4,-42.5,75.7,-32.3C84,-22,82.8,-5.1,81.1,12.2C79.3,29.5,77.2,47.2,66.2,54.2C55.2,61.2,35.5,57.3,18.3,62.3C1.2,67.3,-13.3,81,-23,78.2C-32.7,75.4,-37.5,56.1,-44.3,41.9C-51,27.8,-59.6,18.8,-59,9.7C-58.5,0.6,-48.8,-8.7,-44.3,-20.9C-39.8,-33.2,-40.3,-48.4,-33.8,-58.3C-27.3,-68.1,-13.6,-72.6,-1.5,-70.2C10.6,-67.9,21.3,-58.8,35.5,-52.4Z" transform="translate(100 100)" />
</svg>
