<svg xmlns="http://www.w3.org/2000/svg" xmlns:xlink="http://www.w3.org/1999/xlink" width="32" height="32" viewBox="0 0 32 32"><defs><linearGradient id="a"><stop offset="0" stop-color="#fdfdfa"/><stop offset="1" stop-color="#0bb9b9"/></linearGradient><linearGradient id="b" x1="906.952" x2="931.379" y1="515.915" y2="546.094" gradientTransform="translate(-925.812 491.682) scale(1.02524)" gradientUnits="userSpaceOnUse" xlink:href="#a"/></defs><g transform="translate(0 -1020.362)"><rect width="32" height="32" y="1020.362" fill="url(#b)" rx="6.763" ry="6.763"/><path fill="#fff" style="text-indent:0;text-align:start;line-height:normal;text-transform:none;block-progression:tb" d="m 16.000976,1028.8651 c -1.920464,0 -3.842316,0.731 -5.304687,2.1933 -2.9247422,2.9247 -2.9247422,7.6827 0,10.6074 2.924742,2.9247 7.68268,2.9247 10.607422,0 2.924742,-2.9247 2.924742,-7.6827 0,-10.6074 -1.462371,-1.4623 -3.38227,-2.1933 -5.302735,-2.1933 z m 0,0.9941 c 1.662449,0 3.324407,0.635 4.595703,1.9063 2.542593,2.5426 2.542593,6.6507 0,9.1933 -2.542593,2.5426 -6.650765,2.5426 -9.193359,0 -2.5425931,-2.5426 -2.5425931,-6.6507 0,-9.1933 1.271297,-1.2713 2.935208,-1.9063 4.597656,-1.9063 z m 2.960938,4.502 a 0.50005,0.50005 0 0 0 -0.261719,0.1035 l -3.652344,2.7402 -1.693359,-1.6934 a 0.50005,0.50005 0 1 0 -0.707031,0.7071 l 2,2 a 0.50005,0.50005 0 0 0 0.652344,0.047 l 3.999999,-3 a 0.50005,0.50005 0 0 0 -0.287109,-0.9043 0.50005,0.50005 0 0 0 -0.05078,0 z" color="#000" font-family="sans-serif" font-weight="400" overflow="visible"/></g></svg>