<svg xmlns="http://www.w3.org/2000/svg" data-name="Layer 2" viewBox="0 0 48 48"><circle cx="24" cy="24" r="24" fill="#208efe"/><path fill="#fff" d="M23.001,34a10,10,0,1,1,6.4219-17.6655,1,1,0,1,1-1.2852,1.5322,7.9992,7.9992,0,1,0,2.8369,6.8042.9888.9888,0,0,1,1.0791-.9141.9994.9994,0,0,1,.9131,1.0791A10.0525,10.0525,0,0,1,23.001,34Zm2.2539-6.8418L34.707,17.707a1,1,0,0,0-1.414-1.414l-9.4522,9.4511a.9881.9881,0,0,1-.7529.292.9746.9746,0,0,1-.7041-.3354l-2.5977-3.3174a1,1,0,0,0-1.5742,1.2334l2.6162,3.3408a3.0072,3.0072,0,0,0,2.169,1.0767q.0674.0029.1347.0029A3.0071,3.0071,0,0,0,25.2549,27.1582Z"/></svg>