<?xml version="1.0"?>
<svg xmlns="http://www.w3.org/2000/svg" xmlns:xlink="http://www.w3.org/1999/xlink" xmlns:svgjs="http://svgjs.com/svgjs" version="1.1" width="512" height="512" x="0" y="0" viewBox="0 0 24 24" style="enable-background:new 0 0 512 512" xml:space="preserve"><g><path xmlns="http://www.w3.org/2000/svg" d="m5.868 15.583a8.938 8.938 0 0 1 -2.793-7.761 9 9 0 1 1 14.857 7.941 5.748 5.748 0 0 0 -1.804 3.237h-3.128v-8.184a3 3 0 0 0 2-2.816h-2a1 1 0 0 1 -2 0h-2a3 3 0 0 0 2 2.816v8.184h-3.125a6.538 6.538 0 0 0 -2.007-3.417zm2.132 5.417v3h8v-3z" fill="#208efe" data-original="#000000"/></g></svg>
