<?xml version="1.0" standalone="no"?>
<svg xmlns:xlink="http://www.w3.org/1999/xlink" id="wave" style="transform:rotate(180deg); transition: 0.3s" viewBox="0 0 1440 490" version="1.1" xmlns="http://www.w3.org/2000/svg"><defs><linearGradient id="sw-gradient-0" x1="0" x2="0" y1="1" y2="0"><stop stop-color="rgba(87, 66, 218, 1)" offset="0%"/><stop stop-color="rgba(31, 144, 255, 1)" offset="100%"/></linearGradient></defs><path style="transform:translate(0, 0px); opacity:1" fill="url(#sw-gradient-0)" d="M0,49L60,57.2C120,65,240,82,360,89.8C480,98,600,98,720,138.8C840,180,960,261,1080,285.8C1200,310,1320,278,1440,261.3C1560,245,1680,245,1800,236.8C1920,229,2040,212,2160,204.2C2280,196,2400,196,2520,187.8C2640,180,2760,163,2880,147C3000,131,3120,114,3240,122.5C3360,131,3480,163,3600,204.2C3720,245,3840,294,3960,285.8C4080,278,4200,212,4320,163.3C4440,114,4560,82,4680,122.5C4800,163,4920,278,5040,277.7C5160,278,5280,163,5400,114.3C5520,65,5640,82,5760,130.7C5880,180,6000,261,6120,269.5C6240,278,6360,212,6480,220.5C6600,229,6720,310,6840,285.8C6960,261,7080,131,7200,98C7320,65,7440,131,7560,138.8C7680,147,7800,98,7920,98C8040,98,8160,147,8280,196C8400,245,8520,294,8580,318.5L8640,343L8640,490L8580,490C8520,490,8400,490,8280,490C8160,490,8040,490,7920,490C7800,490,7680,490,7560,490C7440,490,7320,490,7200,490C7080,490,6960,490,6840,490C6720,490,6600,490,6480,490C6360,490,6240,490,6120,490C6000,490,5880,490,5760,490C5640,490,5520,490,5400,490C5280,490,5160,490,5040,490C4920,490,4800,490,4680,490C4560,490,4440,490,4320,490C4200,490,4080,490,3960,490C3840,490,3720,490,3600,490C3480,490,3360,490,3240,490C3120,490,3000,490,2880,490C2760,490,2640,490,2520,490C2400,490,2280,490,2160,490C2040,490,1920,490,1800,490C1680,490,1560,490,1440,490C1320,490,1200,490,1080,490C960,490,840,490,720,490C600,490,480,490,360,490C240,490,120,490,60,490L0,490Z"/></svg>