<?xml version="1.0" standalone="no"?>
<svg xmlns:xlink="http://www.w3.org/1999/xlink" id="wave" style="transform:rotate(0deg); transition: 0.3s" viewBox="0 0 1440 490" version="1.1" xmlns="http://www.w3.org/2000/svg"><defs><linearGradient id="sw-gradient-0" x1="0" x2="0" y1="1" y2="0"><stop stop-color="rgba(30, 144, 255, 1)" offset="0%"/><stop stop-color="rgba(30, 144, 255, 1)" offset="100%"/></linearGradient></defs><path style="transform:translate(0, 0px); opacity:1" fill="url(#sw-gradient-0)" d="M0,49L60,65.3C120,82,240,114,360,106.2C480,98,600,49,720,57.2C840,65,960,131,1080,138.8C1200,147,1320,98,1440,114.3C1560,131,1680,212,1800,228.7C1920,245,2040,196,2160,220.5C2280,245,2400,343,2520,383.8C2640,425,2760,408,2880,400.2C3000,392,3120,392,3240,334.8C3360,278,3480,163,3600,122.5C3720,82,3840,114,3960,130.7C4080,147,4200,147,4320,122.5C4440,98,4560,49,4680,98C4800,147,4920,294,5040,359.3C5160,425,5280,408,5400,359.3C5520,310,5640,229,5760,204.2C5880,180,6000,212,6120,196C6240,180,6360,114,6480,73.5C6600,33,6720,16,6840,32.7C6960,49,7080,98,7200,147C7320,196,7440,245,7560,269.5C7680,294,7800,294,7920,294C8040,294,8160,294,8280,253.2C8400,212,8520,131,8580,89.8L8640,49L8640,490L8580,490C8520,490,8400,490,8280,490C8160,490,8040,490,7920,490C7800,490,7680,490,7560,490C7440,490,7320,490,7200,490C7080,490,6960,490,6840,490C6720,490,6600,490,6480,490C6360,490,6240,490,6120,490C6000,490,5880,490,5760,490C5640,490,5520,490,5400,490C5280,490,5160,490,5040,490C4920,490,4800,490,4680,490C4560,490,4440,490,4320,490C4200,490,4080,490,3960,490C3840,490,3720,490,3600,490C3480,490,3360,490,3240,490C3120,490,3000,490,2880,490C2760,490,2640,490,2520,490C2400,490,2280,490,2160,490C2040,490,1920,490,1800,490C1680,490,1560,490,1440,490C1320,490,1200,490,1080,490C960,490,840,490,720,490C600,490,480,490,360,490C240,490,120,490,60,490L0,490Z"/></svg>