<?xml version="1.0" standalone="no"?>
<svg xmlns:xlink="http://www.w3.org/1999/xlink" id="wave" style="transform:rotate(180deg); transition: 0.3s" viewBox="0 0 1440 490" version="1.1" xmlns="http://www.w3.org/2000/svg"><defs><linearGradient id="sw-gradient-0" x1="0" x2="0" y1="1" y2="0"><stop stop-color="rgba(30, 144, 255, 1)" offset="0%"/><stop stop-color="rgba(87, 66, 218, 1)" offset="100%"/></linearGradient></defs><path style="transform:translate(0, 0px); opacity:1" fill="url(#sw-gradient-0)" d="M0,441L80,400.2C160,359,320,278,480,204.2C640,131,800,65,960,40.8C1120,16,1280,33,1440,81.7C1600,131,1760,212,1920,261.3C2080,310,2240,327,2400,343C2560,359,2720,376,2880,351.2C3040,327,3200,261,3360,204.2C3520,147,3680,98,3840,122.5C4000,147,4160,245,4320,294C4480,343,4640,343,4800,302.2C4960,261,5120,180,5280,138.8C5440,98,5600,98,5760,130.7C5920,163,6080,229,6240,236.8C6400,245,6560,196,6720,155.2C6880,114,7040,82,7200,57.2C7360,33,7520,16,7680,24.5C7840,33,8000,65,8160,73.5C8320,82,8480,65,8640,106.2C8800,147,8960,245,9120,253.2C9280,261,9440,180,9600,179.7C9760,180,9920,261,10080,261.3C10240,261,10400,180,10560,130.7C10720,82,10880,65,11040,49C11200,33,11360,16,11440,8.2L11520,0L11520,490L11440,490C11360,490,11200,490,11040,490C10880,490,10720,490,10560,490C10400,490,10240,490,10080,490C9920,490,9760,490,9600,490C9440,490,9280,490,9120,490C8960,490,8800,490,8640,490C8480,490,8320,490,8160,490C8000,490,7840,490,7680,490C7520,490,7360,490,7200,490C7040,490,6880,490,6720,490C6560,490,6400,490,6240,490C6080,490,5920,490,5760,490C5600,490,5440,490,5280,490C5120,490,4960,490,4800,490C4640,490,4480,490,4320,490C4160,490,4000,490,3840,490C3680,490,3520,490,3360,490C3200,490,3040,490,2880,490C2720,490,2560,490,2400,490C2240,490,2080,490,1920,490C1760,490,1600,490,1440,490C1280,490,1120,490,960,490C800,490,640,490,480,490C320,490,160,490,80,490L0,490Z"/></svg>