<?xml version="1.0" standalone="no"?>
<svg xmlns:xlink="http://www.w3.org/1999/xlink" id="wave" style="transform:rotate(180deg); transition: 0.3s" viewBox="0 0 1440 490" version="1.1" xmlns="http://www.w3.org/2000/svg"><defs><linearGradient id="sw-gradient-0" x1="0" x2="0" y1="1" y2="0"><stop stop-color="rgba(87, 66, 218, 1)" offset="0%"/><stop stop-color="rgba(31, 144, 255, 1)" offset="100%"/></linearGradient></defs><path style="transform:translate(0, 0px); opacity:1" fill="url(#sw-gradient-0)" d="M0,245L120,277.7C240,310,480,376,720,383.8C960,392,1200,343,1440,294C1680,245,1920,196,2160,163.3C2400,131,2640,114,2880,163.3C3120,212,3360,327,3600,383.8C3840,441,4080,441,4320,375.7C4560,310,4800,180,5040,114.3C5280,49,5520,49,5760,65.3C6000,82,6240,114,6480,179.7C6720,245,6960,343,7200,359.3C7440,376,7680,310,7920,245C8160,180,8400,114,8640,130.7C8880,147,9120,245,9360,285.8C9600,327,9840,310,10080,310.3C10320,310,10560,327,10800,277.7C11040,229,11280,114,11520,122.5C11760,131,12000,261,12240,310.3C12480,359,12720,327,12960,318.5C13200,310,13440,327,13680,326.7C13920,327,14160,310,14400,285.8C14640,261,14880,229,15120,245C15360,261,15600,327,15840,310.3C16080,294,16320,196,16560,163.3C16800,131,17040,163,17160,179.7L17280,196L17280,490L17160,490C17040,490,16800,490,16560,490C16320,490,16080,490,15840,490C15600,490,15360,490,15120,490C14880,490,14640,490,14400,490C14160,490,13920,490,13680,490C13440,490,13200,490,12960,490C12720,490,12480,490,12240,490C12000,490,11760,490,11520,490C11280,490,11040,490,10800,490C10560,490,10320,490,10080,490C9840,490,9600,490,9360,490C9120,490,8880,490,8640,490C8400,490,8160,490,7920,490C7680,490,7440,490,7200,490C6960,490,6720,490,6480,490C6240,490,6000,490,5760,490C5520,490,5280,490,5040,490C4800,490,4560,490,4320,490C4080,490,3840,490,3600,490C3360,490,3120,490,2880,490C2640,490,2400,490,2160,490C1920,490,1680,490,1440,490C1200,490,960,490,720,490C480,490,240,490,120,490L0,490Z"/><defs><linearGradient id="sw-gradient-1" x1="0" x2="0" y1="1" y2="0"><stop stop-color="rgba(87, 66, 218, 1)" offset="0%"/><stop stop-color="rgba(31, 144, 255, 1)" offset="100%"/></linearGradient></defs><path style="transform:translate(0, 50px); opacity:0.9" fill="url(#sw-gradient-1)" d="M0,294L120,261.3C240,229,480,163,720,130.7C960,98,1200,98,1440,155.2C1680,212,1920,327,2160,326.7C2400,327,2640,212,2880,171.5C3120,131,3360,163,3600,196C3840,229,4080,261,4320,253.2C4560,245,4800,196,5040,155.2C5280,114,5520,82,5760,89.8C6000,98,6240,147,6480,171.5C6720,196,6960,196,7200,187.8C7440,180,7680,163,7920,171.5C8160,180,8400,212,8640,187.8C8880,163,9120,82,9360,49C9600,16,9840,33,10080,32.7C10320,33,10560,16,10800,73.5C11040,131,11280,261,11520,261.3C11760,261,12000,131,12240,138.8C12480,147,12720,294,12960,310.3C13200,327,13440,212,13680,138.8C13920,65,14160,33,14400,81.7C14640,131,14880,261,15120,269.5C15360,278,15600,163,15840,114.3C16080,65,16320,82,16560,106.2C16800,131,17040,163,17160,179.7L17280,196L17280,490L17160,490C17040,490,16800,490,16560,490C16320,490,16080,490,15840,490C15600,490,15360,490,15120,490C14880,490,14640,490,14400,490C14160,490,13920,490,13680,490C13440,490,13200,490,12960,490C12720,490,12480,490,12240,490C12000,490,11760,490,11520,490C11280,490,11040,490,10800,490C10560,490,10320,490,10080,490C9840,490,9600,490,9360,490C9120,490,8880,490,8640,490C8400,490,8160,490,7920,490C7680,490,7440,490,7200,490C6960,490,6720,490,6480,490C6240,490,6000,490,5760,490C5520,490,5280,490,5040,490C4800,490,4560,490,4320,490C4080,490,3840,490,3600,490C3360,490,3120,490,2880,490C2640,490,2400,490,2160,490C1920,490,1680,490,1440,490C1200,490,960,490,720,490C480,490,240,490,120,490L0,490Z"/><defs><linearGradient id="sw-gradient-2" x1="0" x2="0" y1="1" y2="0"><stop stop-color="rgba(87, 66, 218, 1)" offset="0%"/><stop stop-color="rgba(31, 144, 255, 1)" offset="100%"/></linearGradient></defs><path style="transform:translate(0, 100px); opacity:0.8" fill="url(#sw-gradient-2)" d="M0,392L120,326.7C240,261,480,131,720,114.3C960,98,1200,196,1440,236.8C1680,278,1920,261,2160,277.7C2400,294,2640,343,2880,351.2C3120,359,3360,327,3600,302.2C3840,278,4080,261,4320,253.2C4560,245,4800,245,5040,269.5C5280,294,5520,343,5760,375.7C6000,408,6240,425,6480,375.7C6720,327,6960,212,7200,212.3C7440,212,7680,327,7920,318.5C8160,310,8400,180,8640,155.2C8880,131,9120,212,9360,261.3C9600,310,9840,327,10080,334.8C10320,343,10560,343,10800,294C11040,245,11280,147,11520,130.7C11760,114,12000,180,12240,212.3C12480,245,12720,245,12960,245C13200,245,13440,245,13680,245C13920,245,14160,245,14400,269.5C14640,294,14880,343,15120,334.8C15360,327,15600,261,15840,253.2C16080,245,16320,294,16560,302.2C16800,310,17040,278,17160,261.3L17280,245L17280,490L17160,490C17040,490,16800,490,16560,490C16320,490,16080,490,15840,490C15600,490,15360,490,15120,490C14880,490,14640,490,14400,490C14160,490,13920,490,13680,490C13440,490,13200,490,12960,490C12720,490,12480,490,12240,490C12000,490,11760,490,11520,490C11280,490,11040,490,10800,490C10560,490,10320,490,10080,490C9840,490,9600,490,9360,490C9120,490,8880,490,8640,490C8400,490,8160,490,7920,490C7680,490,7440,490,7200,490C6960,490,6720,490,6480,490C6240,490,6000,490,5760,490C5520,490,5280,490,5040,490C4800,490,4560,490,4320,490C4080,490,3840,490,3600,490C3360,490,3120,490,2880,490C2640,490,2400,490,2160,490C1920,490,1680,490,1440,490C1200,490,960,490,720,490C480,490,240,490,120,490L0,490Z"/><defs><linearGradient id="sw-gradient-3" x1="0" x2="0" y1="1" y2="0"><stop stop-color="rgba(31, 144, 255, 1)" offset="0%"/><stop stop-color="rgba(87, 66, 218, 1)" offset="100%"/></linearGradient></defs><path style="transform:translate(0, 150px); opacity:0.7" fill="url(#sw-gradient-3)" d="M0,245L120,236.8C240,229,480,212,720,220.5C960,229,1200,261,1440,228.7C1680,196,1920,98,2160,65.3C2400,33,2640,65,2880,130.7C3120,196,3360,294,3600,351.2C3840,408,4080,425,4320,432.8C4560,441,4800,441,5040,392C5280,343,5520,245,5760,236.8C6000,229,6240,310,6480,343C6720,376,6960,359,7200,318.5C7440,278,7680,212,7920,228.7C8160,245,8400,343,8640,351.2C8880,359,9120,278,9360,277.7C9600,278,9840,359,10080,383.8C10320,408,10560,376,10800,375.7C11040,376,11280,408,11520,424.7C11760,441,12000,441,12240,367.5C12480,294,12720,147,12960,98C13200,49,13440,98,13680,130.7C13920,163,14160,180,14400,212.3C14640,245,14880,294,15120,261.3C15360,229,15600,114,15840,57.2C16080,0,16320,0,16560,24.5C16800,49,17040,98,17160,122.5L17280,147L17280,490L17160,490C17040,490,16800,490,16560,490C16320,490,16080,490,15840,490C15600,490,15360,490,15120,490C14880,490,14640,490,14400,490C14160,490,13920,490,13680,490C13440,490,13200,490,12960,490C12720,490,12480,490,12240,490C12000,490,11760,490,11520,490C11280,490,11040,490,10800,490C10560,490,10320,490,10080,490C9840,490,9600,490,9360,490C9120,490,8880,490,8640,490C8400,490,8160,490,7920,490C7680,490,7440,490,7200,490C6960,490,6720,490,6480,490C6240,490,6000,490,5760,490C5520,490,5280,490,5040,490C4800,490,4560,490,4320,490C4080,490,3840,490,3600,490C3360,490,3120,490,2880,490C2640,490,2400,490,2160,490C1920,490,1680,490,1440,490C1200,490,960,490,720,490C480,490,240,490,120,490L0,490Z"/></svg>